<?xml version="1.0" encoding="utf-8"?>
<!-- Generator: Adobe Illustrator 21.1.0, SVG Export Plug-In . SVG Version: 6.00 Build 0)  -->
<svg version="1.1" id="Layer_1" xmlns="http://www.w3.org/2000/svg" xmlns:xlink="http://www.w3.org/1999/xlink" x="0px" y="0px"
	 viewBox="0 0 30 30" style="enable-background:new 0 0 30 30;" xml:space="preserve">
<g id="XMLID_246_">
	<g id="XMLID_30_">
		<path id="XMLID_31_" d="M9.6,13.2v3.7c0,0,3.6,0,5.1,0c-0.9,2.5-2,3.7-5.1,3.7S4.1,18.1,4.1,15s2.5-5.7,5.6-5.7
			c1.6,0,2.7,0.5,3.6,1.4C14,10,14,9.9,15.9,8c-1.7-1.5-4-2.5-6.4-2.5C4.3,5.5,0,9.8,0,15s4.3,9.5,9.5,9.5c7.8,0,9.7-6.8,9.1-11.3
			C16.9,13.2,9.6,13.2,9.6,13.2z M26.7,13.4v-3.3h-2.3v3.3h-3.4v2.3h3.4v3.4h2.3v-3.4H30v-2.3C30,13.4,26.7,13.4,26.7,13.4z"/>
	</g>
</g>
</svg>
