<?xml version="1.0" encoding="utf-8"?>
<!-- Generator: Adobe Illustrator 21.1.0, SVG Export Plug-In . SVG Version: 6.00 Build 0)  -->
<svg version="1.1" id="Layer_1" xmlns="http://www.w3.org/2000/svg" xmlns:xlink="http://www.w3.org/1999/xlink" x="0px" y="0px"
	 viewBox="0 0 30 30" style="enable-background:new 0 0 30 30;" xml:space="preserve">
<path d="M26.5,7.9c-0.8,0.4-1.8,0.6-2.7,0.7c1-0.6,1.7-1.5,2.1-2.6c-0.9,0.5-1.9,0.9-3,1.1c-0.9-0.9-2.1-1.5-3.4-1.5
	c-2.6,0-4.7,2.1-4.7,4.7c0,0.4,0,0.7,0.1,1.1c-3.9-0.2-7.4-2.1-9.7-4.9C4.7,7.2,4.5,8,4.5,8.9c0,1.6,0.8,3.1,2.1,3.9
	c-0.8,0-1.5-0.2-2.1-0.6c0,0,0,0,0,0.1c0,2.3,1.6,4.2,3.8,4.6C7.8,17,7.4,17.1,7,17.1c-0.3,0-0.6,0-0.9-0.1c0.6,1.9,2.3,3.2,4.4,3.3
	c-1.6,1.3-3.6,2-5.9,2c-0.4,0-0.8,0-1.1-0.1c2.1,1.3,4.6,2.1,7.2,2.1c8.7,0,13.4-7.2,13.4-13.4c0-0.2,0-0.4,0-0.6
	C25.1,9.6,25.9,8.8,26.5,7.9z"/>
</svg>
