<?xml version="1.0" encoding="utf-8"?>
<!-- Generator: Adobe Illustrator 21.1.0, SVG Export Plug-In . SVG Version: 6.00 Build 0)  -->
<svg version="1.1" id="Layer_1" xmlns="http://www.w3.org/2000/svg" xmlns:xlink="http://www.w3.org/1999/xlink" x="0px" y="0px"
	 viewBox="0 0 30 30" style="enable-background:new 0 0 30 30;" xml:space="preserve">
<path d="M9.4,13.4h-4v-3.2h4c0.9,0,1.6,0.7,1.6,1.6C11,12.7,10.3,13.4,9.4,13.4L9.4,13.4z M15,18.2c0-1.7-1.2-3.2-2.7-3.8
	c1.1-0.7,1.9-2,1.9-3.4c0-2.2-1.8-4-4-4h-8v16h8C12.8,23,15,20.9,15,18.2L15,18.2z M19,17.4h8.8c0-0.1,0-0.3,0-0.4c0-3.3-2.4-6-6-6
	s-6,2.7-6,6s2.4,6,6,6s5.3-2.1,5.9-4.8h-3.3c-0.3,1.4-1.1,2.4-2.6,2.4S19.1,19.2,19,17.4L19,17.4z M24.5,15.8h-5.3
	c0.2-1.4,1.2-2.4,2.7-2.4C23.2,13.4,24.2,14.4,24.5,15.8L24.5,15.8z M18.2,7.8h7.2v2.4h-7.2V7.8z M5.4,15.8h4c0.9,0,2.4,0.4,2.4,2.1
	c0,0.9-0.7,1.9-1.6,1.9H5.4V15.8z"/>
</svg>
