<?xml version="1.0" encoding="utf-8"?>
<!-- Generator: Adobe Illustrator 21.1.0, SVG Export Plug-In . SVG Version: 6.00 Build 0)  -->
<svg version="1.1" id="Layer_1" xmlns="http://www.w3.org/2000/svg" xmlns:xlink="http://www.w3.org/1999/xlink" x="0px" y="0px"
	 viewBox="0 0 30 30" style="enable-background:new 0 0 30 30;" xml:space="preserve">
<path d="M15.5,4.6c-5.9,0-8.8,4-8.8,7.5c0,0.6,0.1,1.2,0.2,1.8c0.3,1.2,1.1,2.3,2.3,2.8c0.3,0.1,0.5,0,0.6-0.3
	c0.1-0.2,0.2-0.7,0.2-0.9c0.1-0.3,0.1-0.4-0.2-0.6c-0.2-0.4-0.4-0.8-0.5-1.3c-0.1-0.3-0.2-0.6-0.2-1c0-3,2.3-5.7,6-5.7
	c3.3,0,5.1,2,5.1,4.6c0,0.7-0.1,1.6-0.2,2.2c-0.5,2.4-1.9,4.1-3.6,4.1c-1.2,0-2.3-1-2-2.3c0.2-0.7,0.4-1.5,0.6-2.2
	c0.2-0.7,0.4-1.5,0.4-2.1c0-0.9-0.5-1.8-1.7-1.8c-1.3,0-2.4,1.3-2.4,3.1c0,0.3,0,0.6,0.1,0.9c0.1,0.6,0.3,1,0.3,1s-1.3,5.5-1.6,6.5
	c-0.5,2-0.1,4.3,0,4.6c0,0.1,0.2,0.2,0.3,0.1s1.7-2.1,2.2-3.9c0.1-0.5,0.8-3.3,0.8-3.3c0.4,0.8,1.7,1.5,3,1.5c3.2,0,5.6-2.3,6.3-5.7
	c0.3-0.9,0.4-1.8,0.4-2.6C23.3,7.9,20.2,4.6,15.5,4.6L15.5,4.6z"/>
</svg>
